<?xml version="1.0" standalone="no"?>
<!DOCTYPE svg PUBLIC "-//W3C//DTD SVG 20010904//EN" "http://www.w3.org/TR/2001/REC-SVG-20010904/DTD/svg10.dtd">
<svg version="1.0" xmlns="http://www.w3.org/2000/svg"
    width="50" height="45" viewBox="0 100 800 700"
    preserveAspectRatio="xMidYMid meet">

    <g transform="translate(0.000000,1000.000000) scale(0.100000,-0.100000)"
        fill="#DB4648">
        <path
            d="M4710 7730 c-281 -29 -657 -141 -977 -291 -985 -460 -1571 -1372
-1610 -2505 -19 -544 190 -1146 557 -1609 143 -179 375 -398 580 -545 310
-222 728 -421 960 -456 585 -89 1130 -65 1600 72 297 86 603 243 780 401 100
90 267 205 342 236 96 40 336 258 450 407 149 197 332 524 392 701 172 510
149 1125 -64 1755 -67 197 -122 307 -213 430 -270 362 -680 572 -1152 591
-133 5 -163 3 -255 -17 -621 -133 -1145 -572 -1576 -1322 -159 -277 -298 -573
-378 -805 -39 -116 -96 -336 -96 -374 0 -7 30 47 68 121 83 166 183 322 326
505 289 370 513 604 757 787 420 316 829 390 1179 213 200 -101 423 -332 518
-535 19 -41 56 -140 82 -220 196 -591 149 -1231 -137 -1883 -65 -146 -168
-337 -243 -447 l-39 -58 -113 -27 c-187 -45 -333 -58 -593 -52 -305 7 -572 43
-867 117 -482 122 -968 397 -1336 754 -521 507 -721 1082 -586 1686 64 285
217 593 439 885 488 642 1085 1059 1702 1189 187 39 305 49 521 43 207 -5 321
-20 471 -63 46 -14 85 -23 88 -21 2 2 -67 45 -154 94 -136 78 -176 95 -288
127 -149 42 -328 78 -500 101 -140 19 -512 28 -635 15z" />
    </g>
</svg>