<?xml version="1.0" standalone="no"?>
<!DOCTYPE svg PUBLIC "-//W3C//DTD SVG 20010904//EN" "http://www.w3.org/TR/2001/REC-SVG-20010904/DTD/svg10.dtd">
<svg version="1.0" xmlns="http://www.w3.org/2000/svg"
    width="30" height="30" viewBox="0 0 411 305"
    preserveAspectRatio="xMidYMid meet">
    <metadata> Created by potrace 1.16, written by Peter Selinger 2001-2019 </metadata>
    <g transform="translate(0.000000,305.000000) scale(0.100000,-0.100000)"
        fill="#DB4648" stroke="none">
        <path
            d="M2675 2960 c-98 -26 -191 -62 -307 -121 l-100 -49 -141 46 c-252 82
-436 111 -653 101 -525 -24 -954 -290 -1174 -727 -106 -211 -150 -414 -150
-687 0 -238 29 -444 87 -611 l36 -104 -61 -126 c-126 -262 -161 -455 -105
-569 57 -118 272 -114 553 8 63 28 136 58 162 66 46 16 47 16 115 -14 135 -60
241 -81 465 -93 172 -8 441 2 528 20 177 37 368 121 495 217 92 70 232 211
300 304 52 71 131 229 164 329 45 139 52 202 58 515 6 351 2 392 -64 590 l-46
140 45 85 c99 185 155 386 145 519 -7 90 -23 116 -97 154 -65 33 -149 36 -255
7z m-23 -190 c130 -36 111 -218 -54 -515 -247 -445 -755 -1021 -1267 -1434
-313 -253 -649 -452 -835 -496 -114 -27 -166 -15 -206 51 -20 31 -22 44 -16
106 6 65 38 183 55 200 4 5 35 -30 70 -77 78 -106 112 -135 157 -135 81 0 476
193 566 277 l27 26 -64 83 c-76 100 -119 185 -142 285 -14 61 -17 127 -17 369
l-1 295 28 80 c65 185 180 341 292 398 101 51 159 62 315 61 131 0 152 -3 218
-26 183 -66 297 -193 377 -423 16 -44 32 -84 36 -89 14 -16 42 18 152 183 122
182 193 318 233 445 l28 90 -81 76 c-44 42 -97 84 -117 94 -42 20 -44 28 -12
46 64 34 190 48 258 30z m-477 -1586 c-59 -243 -185 -422 -347 -493 -87 -39
-358 -79 -358 -53 0 5 44 47 98 93 53 45 187 171 297 279 269 264 329 318 333
298 2 -9 -9 -65 -23 -124z" />
    </g>
</svg>